<?xml version="1.0" standalone="no"?>
<!DOCTYPE svg PUBLIC "-//W3C//DTD SVG 20010904//EN"
 "http://www.w3.org/TR/2001/REC-SVG-20010904/DTD/svg10.dtd">
<svg version="1.0" xmlns="http://www.w3.org/2000/svg"
 width="300.000000pt" height="300.000000pt" viewBox="0 0 300.000000 300.000000"
 preserveAspectRatio="xMidYMid meet">

<g transform="translate(0.000000,300.000000) scale(0.100000,-0.100000)"
fill="#000000" stroke="none">
<path d="M340 2275 l0 -385 385 0 385 0 0 385 0 385 -385 0 -385 0 0 -385z
m660 0 l0 -275 -275 0 -275 0 0 275 0 275 275 0 275 0 0 -275z"/>
<path d="M560 2275 l0 -165 165 0 165 0 0 165 0 165 -165 0 -165 0 0 -165z"/>
<path d="M1220 2605 l0 -55 55 0 55 0 0 -55 0 -55 -55 0 -55 0 0 -165 0 -165
165 0 165 0 0 55 0 55 55 0 55 0 0 55 0 55 55 0 55 0 0 165 0 165 -55 0 -55 0
0 -165 0 -165 -55 0 -55 0 0 55 0 55 -55 0 -55 0 0 110 0 110 -110 0 -110 0 0
-55z m220 -220 l0 -55 55 0 55 0 0 -55 0 -55 -110 0 -110 0 0 110 0 110 55 0
55 0 0 -55z"/>
<path d="M1880 2275 l0 -385 385 0 385 0 0 385 0 385 -385 0 -385 0 0 -385z
m660 0 l0 -275 -275 0 -275 0 0 275 0 275 275 0 275 0 0 -275z"/>
<path d="M2100 2275 l0 -165 165 0 165 0 0 165 0 165 -165 0 -165 0 0 -165z"/>
<path d="M1220 1945 l0 -55 55 0 55 0 0 -55 0 -55 -55 0 -55 0 0 -55 0 -55
-55 0 -55 0 0 55 0 55 -55 0 -55 0 0 -55 0 -55 -110 0 -110 0 0 55 0 55 -220
0 -220 0 0 -165 0 -165 55 0 55 0 0 110 0 110 55 0 55 0 0 -110 0 -110 165 0
165 0 0 55 0 55 55 0 55 0 0 -55 0 -55 55 0 55 0 0 55 0 55 55 0 55 0 0 -110
0 -110 -220 0 -220 0 0 -55 0 -55 220 0 220 0 0 -55 0 -55 110 0 110 0 0 -55
0 -55 -55 0 -55 0 0 -55 0 -55 110 0 110 0 0 -55 0 -55 -55 0 -55 0 0 -55 0
-55 -55 0 -55 0 0 55 0 55 -55 0 -55 0 0 -220 0 -220 55 0 55 0 0 55 0 55 55
0 55 0 0 -55 0 -55 165 0 165 0 0 110 0 110 55 0 55 0 0 -55 0 -55 55 0 55 0
0 -55 0 -55 55 0 55 0 0 55 0 55 110 0 110 0 0 55 0 55 55 0 55 0 0 -110 0
-110 55 0 55 0 0 55 0 55 55 0 55 0 0 55 0 55 -110 0 -110 0 0 55 0 55 55 0
55 0 0 55 0 55 55 0 55 0 0 110 0 110 -55 0 -55 0 0 275 0 275 -220 0 -220 0
0 55 0 55 165 0 165 0 0 55 0 55 -165 0 -165 0 0 -55 0 -55 -55 0 -55 0 0 -55
0 -55 -110 0 -110 0 0 55 0 55 55 0 55 0 0 55 0 55 -55 0 -55 0 0 -55 0 -55
-55 0 -55 0 0 -165 0 -165 -55 0 -55 0 0 110 0 110 -55 0 -55 0 0 55 0 55 55
0 55 0 0 165 0 165 -55 0 -55 0 0 -55 0 -55 -55 0 -55 0 0 55 0 55 -55 0 -55
0 0 -55z m220 -220 l0 -55 -55 0 -55 0 0 55 0 55 55 0 55 0 0 -55z m-660 -110
l0 -55 -55 0 -55 0 0 55 0 55 55 0 55 0 0 -55z m330 0 l0 -55 -55 0 -55 0 0
55 0 55 55 0 55 0 0 -55z m330 -110 l0 -55 -55 0 -55 0 0 55 0 55 55 0 55 0 0
-55z m770 -110 l0 -55 55 0 55 0 0 -55 0 -55 55 0 55 0 0 -55 0 -55 -55 0 -55
0 0 -165 0 -165 55 0 55 0 0 110 0 110 55 0 55 0 0 -110 0 -110 -55 0 -55 0 0
-55 0 -55 -55 0 -55 0 0 -55 0 -55 -55 0 -55 0 0 110 0 110 -55 0 -55 0 0
-165 0 -165 -55 0 -55 0 0 55 0 55 -55 0 -55 0 0 110 0 110 -55 0 -55 0 0
-110 0 -110 -55 0 -55 0 0 55 0 55 -55 0 -55 0 0 55 0 55 55 0 55 0 0 55 0 55
110 0 110 0 0 -55 0 -55 55 0 55 0 0 165 0 165 -55 0 -55 0 0 165 0 165 165 0
165 0 0 -55z m-770 -110 l0 -55 110 0 110 0 0 55 0 55 55 0 55 0 0 -165 0
-165 -110 0 -110 0 0 55 0 55 -55 0 -55 0 0 55 0 55 -110 0 -110 0 0 55 0 55
110 0 110 0 0 -55z m110 -770 l0 -55 -55 0 -55 0 0 55 0 55 55 0 55 0 0 -55z"/>
<path d="M2100 1285 l0 -55 -55 0 -55 0 0 -55 0 -55 55 0 55 0 0 -55 0 -55 55
0 55 0 0 55 0 55 -55 0 -55 0 0 55 0 55 55 0 55 0 0 55 0 55 -55 0 -55 0 0
-55z"/>
<path d="M1660 1945 l0 -55 55 0 55 0 0 55 0 55 -55 0 -55 0 0 -55z"/>
<path d="M2540 1725 l0 -55 55 0 55 0 0 55 0 55 -55 0 -55 0 0 -55z"/>
<path d="M340 1285 l0 -55 55 0 55 0 0 55 0 55 -55 0 -55 0 0 -55z"/>
<path d="M340 735 l0 -385 385 0 385 0 0 385 0 385 -385 0 -385 0 0 -385z
m660 0 l0 -275 -275 0 -275 0 0 275 0 275 275 0 275 0 0 -275z"/>
<path d="M560 735 l0 -165 165 0 165 0 0 165 0 165 -165 0 -165 0 0 -165z"/>
</g>
</svg>
