<?xml version="1.0" standalone="no"?>
<!DOCTYPE svg PUBLIC "-//W3C//DTD SVG 20010904//EN"
 "http://www.w3.org/TR/2001/REC-SVG-20010904/DTD/svg10.dtd">
<svg version="1.0" xmlns="http://www.w3.org/2000/svg"
 width="669.000000pt" height="373.000000pt" viewBox="0 0 669.000000 373.000000"
 preserveAspectRatio="xMidYMid meet">

<g transform="translate(0.000000,373.000000) scale(0.100000,-0.100000)"
fill="#000000" stroke="none">
<path d="M1790 3664 c-34 -14 -71 -61 -85 -108 -9 -28 -25 -102 -36 -166 -11
-63 -34 -185 -50 -270 -38 -208 -80 -437 -119 -655 -17 -99 -37 -191 -44 -205
-13 -29 -62 -38 -97 -20 -20 11 -21 17 -15 73 4 34 20 130 36 212 16 83 43
229 60 325 18 96 43 232 56 301 29 155 33 240 12 271 -50 74 -113 107 -203
108 -87 0 -159 -43 -197 -120 -15 -30 -30 -80 -34 -110 -3 -30 -19 -125 -34
-210 -16 -85 -42 -236 -60 -335 -123 -695 -143 -805 -152 -805 -5 0 -37 44
-72 98 -205 316 -301 460 -325 485 -61 67 -159 87 -242 50 -143 -64 -197 -211
-127 -348 14 -27 52 -102 85 -167 113 -218 196 -432 283 -728 96 -328 131
-428 197 -555 129 -250 439 -537 719 -666 261 -120 522 -126 797 -19 325 126
489 271 577 511 31 83 84 338 95 454 9 96 67 478 110 720 19 110 47 268 61
350 25 151 44 258 89 505 45 248 42 289 -32 371 -46 51 -103 78 -164 79 -114
0 -138 -33 -174 -246 -14 -82 -44 -246 -66 -364 -22 -118 -47 -253 -55 -300
-31 -191 -67 -345 -82 -357 -24 -19 -59 -16 -83 8 -26 26 -30 -7 66 519 14 74
31 173 39 220 35 199 67 371 86 464 25 124 25 169 -1 223 -52 107 -189 162
-294 119 -64 -27 -60 -14 -166 -591 -16 -88 -43 -234 -60 -325 -51 -284 -60
-325 -76 -342 -34 -38 -103 -10 -103 40 0 23 42 274 65 387 8 39 21 111 29
160 8 50 26 151 40 225 63 348 86 482 86 509 0 77 -57 163 -134 203 -40 20
-174 35 -206 22z"/>
<path d="M4730 3661 c-81 -26 -141 -81 -165 -149 -20 -59 -19 -89 4 -208 11
-54 31 -164 45 -244 53 -301 98 -548 116 -640 10 -52 24 -136 31 -187 12 -86
11 -94 -6 -113 -23 -25 -67 -26 -88 -2 -10 10 -21 43 -27 73 -5 30 -23 126
-39 214 -16 88 -44 239 -61 335 -17 96 -44 243 -60 325 -16 83 -31 168 -35
190 -16 93 -64 135 -156 135 -74 0 -152 -39 -196 -98 -30 -40 -33 -50 -33
-116 0 -40 13 -145 29 -232 16 -88 41 -226 56 -309 29 -165 71 -397 110 -606
31 -167 31 -184 3 -203 -29 -21 -51 -20 -77 2 -22 18 -38 90 -111 492 -17 96
-44 245 -60 330 -16 85 -36 196 -45 245 -19 112 -41 162 -76 181 -39 20 -126
17 -174 -5 -53 -24 -123 -103 -131 -149 -11 -60 3 -174 65 -527 33 -187 72
-405 86 -485 14 -80 36 -208 49 -285 14 -77 39 -241 56 -365 63 -459 73 -513
122 -645 89 -243 254 -391 574 -514 347 -133 661 -93 992 129 160 107 351 289
447 425 105 149 158 282 280 700 87 296 165 497 279 715 107 205 110 211 114
271 6 74 -18 138 -69 184 -57 51 -111 75 -172 76 -96 3 -146 -38 -255 -205
-47 -72 -127 -195 -178 -272 -52 -78 -97 -149 -100 -158 -3 -9 -12 -16 -18
-16 -12 0 -26 69 -111 555 -18 105 -52 296 -75 425 -22 129 -49 283 -60 342
-23 135 -50 186 -123 228 -43 24 -63 30 -115 30 -73 0 -119 -20 -171 -74 -62
-64 -63 -59 108 -976 37 -196 38 -225 12 -240 -50 -26 -99 -3 -107 50 -3 19
-20 114 -39 210 -19 96 -47 252 -64 345 -26 149 -107 587 -127 685 -9 47 -27
80 -59 110 -22 21 -37 25 -98 27 -40 1 -83 -1 -97 -6z"/>
</g>
</svg>
